<!DOCTYPE svg PUBLIC "-//W3C//DTD SVG 1.1//EN" "http://www.w3.org/Graphics/SVG/1.1/DTD/svg11.dtd">
<!-- Uploaded to: SVG Repo, www.svgrepo.com, Transformed by: SVG Repo Mixer Tools -->
<svg fill="#ffffff" width="800px" height="800px" viewBox="0 0 512 512" version="1.1" xml:space="preserve" xmlns="http://www.w3.org/2000/svg" xmlns:xlink="http://www.w3.org/1999/xlink">
<g id="SVGRepo_bgCarrier" stroke-width="0"/>
<g id="SVGRepo_tracerCarrier" stroke-linecap="round" stroke-linejoin="round"/>
<g id="SVGRepo_iconCarrier"> <g id="_x34_52_x2C__Art_x2C__computer_x2C__design_x2C__digital_x2C__studio"> <g> <path d="M407.588,106.972v127.843h14.404V106.606c0-4.755-1.94-9.087-5.092-12.21 c-3.124-3.15-7.456-5.092-12.238-5.092H71.607c-4.755,0-9.088,1.941-12.239,5.092c-3.122,3.123-5.092,7.455-5.092,12.21v239.846 c0,4.755,1.97,9.087,5.092,12.21c3.123,3.152,7.484,5.093,12.239,5.093h333.055c4.782,0,9.114-1.94,12.238-5.093 c3.151-3.123,5.092-7.455,5.092-12.21v-66.397h-14.404v22.677c0,1.913-1.548,3.46-3.461,3.46H71.325 c-1.884,0-3.432-1.547-3.432-3.46v-195.76c0-1.913,1.548-3.46,3.432-3.46h332.802C406.04,103.512,407.588,105.059,407.588,106.972 M278.113,370.676h-79.958l-15.979,60.714h111.918L278.113,370.676z M127.707,438.311v17.641h220.855v-17.641 C274.934,438.311,201.334,438.311,127.707,438.311z M241.229,342.485c-0.788-0.788-1.885-1.295-3.094-1.295 c-1.21,0-2.307,0.507-3.095,1.295s-1.265,1.885-1.265,3.095c0,1.182,0.477,2.278,1.265,3.066c0.788,0.816,1.885,1.295,3.095,1.295 c1.153,0,2.193-0.423,2.954-1.127l0.14-0.168c0.788-0.788,1.267-1.885,1.267-3.066c0-1.154-0.423-2.194-1.125-2.982 L241.229,342.485z M238.135,334.298c3.122,0,5.937,1.267,7.99,3.292l0.225,0.225c1.886,2.026,3.067,4.756,3.067,7.766 c0,3.094-1.265,5.936-3.292,7.962l-0.281,0.253c-1.999,1.885-4.728,3.067-7.709,3.067c-3.095,0-5.936-1.267-7.963-3.32 c-2.053-2.026-3.32-4.868-3.32-7.962c0-3.123,1.267-5.965,3.292-7.99C232.199,335.564,235.011,334.298,238.135,334.298z M256.563,82.383h143.568c-0.872-0.788-1.294-2.025-1.04-3.264c0.984-4.502,0.506-8.834-1.041-12.604 c-1.323-3.207-3.404-6.021-5.965-8.244l-0.196-0.141c-2.675-2.25-5.88-3.854-9.341-4.614c-3.995-0.872-8.328-0.591-12.604,1.153 c-0.564,0.227-1.184,0.311-1.831,0.227c-1.884-0.282-3.178-2.055-2.868-3.939c0.168-1.098,0.252-2.251,0.252-3.461 c0-5.232-1.912-10.156-5.12-13.926c-3.206-3.799-7.709-6.471-12.913-7.315c-1.041-0.14-2.195-0.253-3.433-0.253 c-3.713,0-7.203,0.929-10.185,2.56l-0.225,0.113c-3.123,1.744-5.768,4.22-7.681,7.201l-0.114,0.169 c-0.984,1.633-3.121,2.139-4.753,1.154c-2.026-1.238-4.192-2.025-6.359-2.392c-3.573-0.591-7.173-0.056-10.382,1.407 c-3.179,1.434-5.964,3.797-7.849,6.893c-1.127,1.801-1.914,3.883-2.336,6.133c-0.14,1.772-1.632,3.18-3.432,3.18h-0.253 c-4.952,0-9.455,1.941-12.717,5.121c-3.18,3.122-5.178,7.398-5.318,12.236l0.056,1.971l0.227,2.109 c-0.056,1.914-1.632,3.433-3.519,3.377c-3.346-0.084-6.609,0.9-9.452,2.645C258.616,80.609,257.548,81.426,256.563,82.383z M172.16,159.893h-38.994v38.994h38.994V159.893z M129.706,152.973h45.915c1.913,0,3.46,1.547,3.46,3.46v45.915 c0,1.885-1.548,3.461-3.46,3.461h-45.915c-1.915,0-3.462-1.576-3.462-3.461v-45.915 C126.243,154.52,127.791,152.973,129.706,152.973z M259.517,198.887l-21.776-35.842l-21.775,35.842H259.517z M240.808,154.829 l27.797,45.718c0.984,1.633,0.449,3.742-1.155,4.727c-0.562,0.338-1.181,0.506-1.8,0.506l-55.819,0.029 c-1.913,0-3.46-1.576-3.46-3.461c0-0.76,0.225-1.463,0.647-2.025l27.769-45.689c1.013-1.633,3.122-2.14,4.754-1.154 C240.104,153.816,240.527,154.294,240.808,154.829z M285.006,280.055c-0.731-0.056-1.405-0.309-1.94-0.731l-0.028-0.028 l-30.02-18.793c-0.505-0.281-0.984-0.703-1.321-1.238c-1.013-1.604-0.535-3.714,1.097-4.727l30.3-19.02 c0.592-0.449,1.294-0.703,2.081-0.703h115.493V110.434H74.787v188.838h325.88v-19.217h-87.329h-0.17h-0.196h-27.798h-0.14H285.006 z M261.092,257.435l25.041,15.7h23.574v-12.971c0-1.914,1.549-3.461,3.461-3.461c1.887,0,3.434,1.547,3.434,3.461v12.971h87.525 h0.112h21.214h0.084h18.964v-12.24h-93.209c-1.915,0-3.462-1.547-3.462-3.46s1.547-3.46,3.462-3.46h93.209v-12.238H286.133 L261.092,257.435z M451.421,241.736v31.398h5.064v-31.398H451.421z M463.406,241.736v31.398h11.253 c3.067,0,5.881-1.268,7.936-3.32c2.024-2.025,3.292-4.84,3.292-7.934v-8.92c0-3.066-1.268-5.879-3.292-7.904 c-2.055-2.055-4.868-3.32-7.936-3.32H463.406z M332.553,165.83c-3.348-3.349-7.961-5.402-13.025-5.402 c-5.092,0-9.705,2.054-13.025,5.373c-3.349,3.349-5.403,7.962-5.403,13.055c0,5.092,2.055,9.707,5.375,13.027 c3.349,3.348,7.962,5.4,13.054,5.4c5.064,0,9.678-2.053,13.025-5.373c3.32-3.348,5.375-7.963,5.375-13.055 C337.928,173.763,335.873,169.149,332.553,165.83z M100.192,239.063c-1.915,0-3.46-1.547-3.46-3.46s1.546-3.461,3.46-3.461 h111.806c1.913,0,3.46,1.548,3.46,3.461s-1.548,3.46-3.46,3.46H100.192z M100.192,256.9c-1.915,0-3.46-1.547-3.46-3.461 c0-1.913,1.546-3.46,3.46-3.46h111.806c1.913,0,3.46,1.547,3.46,3.46c0,1.914-1.548,3.461-3.46,3.461H100.192z M48.847,470.412 c-1.913,0-3.46-1.548-3.46-3.461c0-1.884,1.547-3.46,3.46-3.46h255.853c1.915,0,3.463,1.576,3.463,3.46 c0,1.913-1.548,3.461-3.463,3.461H48.847z M198.662,485.999c-1.913,0-3.46-1.575-3.46-3.461c0-1.913,1.547-3.46,3.46-3.46h177.049 c1.914,0,3.462,1.547,3.462,3.46c0,1.886-1.548,3.461-3.462,3.461H198.662z M393.83,485.999c-1.885,0-3.46-1.575-3.46-3.461 c0-1.913,1.575-3.46,3.46-3.46h22.142c1.913,0,3.461,1.547,3.461,3.46c0,1.886-1.548,3.461-3.461,3.461H393.83z M38.774,485.521 c-1.913,0-3.46-1.548-3.46-3.46c0-1.913,1.547-3.461,3.46-3.461h83.868c1.913,0,3.46,1.548,3.46,3.461 c0,1.912-1.548,3.46-3.46,3.46H38.774z M33.035,191.656c0,1.914-1.548,3.461-3.46,3.461s-3.46-1.547-3.46-3.461V88.882 c0-7.315,3.011-13.954,7.793-18.765c4.839-4.84,11.479-7.822,18.793-7.822h59.055c1.915,0,3.46,1.547,3.46,3.461 c0,1.885-1.546,3.461-3.46,3.461H52.7c-5.401,0-10.325,2.193-13.897,5.738c-3.573,3.602-5.768,8.525-5.768,13.927V191.656z M423.568,69.217c-1.913,0-3.461-1.576-3.461-3.461c0-1.914,1.548-3.461,3.461-3.461c7.315,0,13.955,2.982,18.765,7.793 c4.84,4.84,7.821,11.479,7.821,18.794v43.438c0,1.914-1.546,3.462-3.46,3.462c-1.913,0-3.461-1.548-3.461-3.462V88.882 c0-5.401-2.193-10.325-5.768-13.898C433.893,71.41,428.969,69.217,423.568,69.217z M319.527,153.506 c6.977,0,13.309,2.843,17.893,7.428c4.588,4.614,7.428,10.944,7.428,17.922s-2.84,13.308-7.428,17.894 c-4.584,4.614-10.916,7.455-17.893,7.455c-7.005,0-13.336-2.841-17.922-7.427c-4.587-4.614-7.428-10.944-7.428-17.922 s2.841-13.308,7.428-17.894C306.191,156.349,312.522,153.506,319.527,153.506z" style="fill-rule:evenodd;clip-rule:evenodd;"/> </g> </g> <g id="Layer_1"/> </g>
</svg>