<?xml version="1.0"?>
<svg xmlns="http://www.w3.org/2000/svg" width="50" height="50" viewBox="0 0 50 50">
    <path d="M 25 0 C 24.8085 -1.8503717e-17 24.6045 0.04625 24.4375 0.15625 L 0.4375 15.96875 C 0.1565 16.15375 0 16.4765 0 16.8125 L 0 23.3125 C 0 23.6805 0.20725 24.0135 0.53125 24.1875 C 0.85525 24.3615 1.2545 24.329 1.5625 24.125 L 25 8.59375 L 48.4375 24.125 C 48.6045 24.236 48.807 24.3125 49 24.3125 C 49.162 24.3125 49.32075 24.2665 49.46875 24.1875 C 49.79375 24.0135 50 23.6805 50 23.3125 L 50 16.8125 C 50 16.4755 49.8435 16.15275 49.5625 15.96875 L 25.5625 0.15625 C 25.3955 0.04625 25.1915 1.8503717e-17 25 0 z M 25 11 L 3 25.5625 L 3 49 C 3 49.553 3.448 50 4 50 L 46 50 C 46.553 50 47 49.553 47 49 L 47 25.5625 L 25 11 z M 19.5 23 L 30.5 23 C 33.337 23 35.71775 25.145 35.96875 28 C 33.17775 28.014 31 30.205 31 33 C 31 33.897 30.897 34 30 34 L 20 34 C 19.103 34 19 33.897 19 33 C 19 30.205 16.82225 28.014 14.03125 28 C 14.27925 25.227 16.573 23 19.5 23 z M 14 30 C 15.7 30 17 31.3 17 33 C 17 35 18 36 20 36 L 30 36 C 32 36 33 35 33 33 C 33 31.3 34.3 30 36 30 C 37.7 30 39 31.3 39 33 C 39 34.7 37.7 36 36 36 L 36 37.6875 C 36 38.5985 35.613 39.42925 35 40.03125 L 35 43 C 35 43.6 34.50625 44.09375 33.90625 44.09375 L 32.09375 44.09375 C 31.49375 44.09375 31 43.6 31 43 L 31 41 L 19 41 L 19 43 C 19 43.6 18.50625 44.09375 17.90625 44.09375 L 16.09375 44.09375 C 15.49375 44.09375 15 43.6 15 43 L 15 40.03125 C 14.387 39.42925 14 38.5985 14 37.6875 L 14 36 C 12.3 36 11 34.7 11 33 C 11 31.3 12.3 30 14 30 z"/>
</svg>
